<svg xmlns="http://www.w3.org/2000/svg" width="169.583" height="35.059"><path fill="#c1282d" d="M34.667 0h134.917v35H34.667z"/><path fill="#ef4041" d="M0 .029h112.5v35H0z"/><path d="M125.464 13.588h2.664l1.92 5.82 1.92-5.82h2.556L131.272 22h-2.592zM140.6 19.66a1.344 1.344 0 001.02.432 1.264 1.264 0 00.984-.426 1.649 1.649 0 00.384-1.146v-4.932h2.5v4.932a3.787 3.787 0 01-.474 1.926 3.214 3.214 0 01-1.35 1.272 4.409 4.409 0 01-2.04.45 4.509 4.509 0 01-2.064-.45 3.272 3.272 0 01-1.374-1.272 3.71 3.71 0 01-.486-1.926v-4.932h2.5v4.932a1.593 1.593 0 00.4 1.14zm8.8-6.072h6.876v1.92H151.9v1.32h3.972v1.92H151.9v1.332h4.5V22h-7zm-133.611-.119l2.461 6.539 2.455-6.539h1.916V22h-1.476v-2.812l.146-3.762L18.771 22h-1.06L15.2 15.432l.146 3.756V22h-1.479v-8.531zm16.105 6.545h-3.3L27.9 22h-1.543l3.223-8.531h1.33L34.138 22h-1.547zm-2.889-1.2h2.473l-1.236-3.539zM37.745 22v-8.531h2.52a3.952 3.952 0 012.007.5 3.436 3.436 0 011.356 1.43 4.538 4.538 0 01.48 2.121v.428a4.519 4.519 0 01-.483 2.133 3.4 3.4 0 01-1.377 1.419 4.135 4.135 0 01-2.048.5zm1.482-7.336V20.8h.967a2.229 2.229 0 001.79-.729 3.165 3.165 0 00.636-2.09v-.475a3.251 3.251 0 00-.6-2.117 2.142 2.142 0 00-1.752-.731zm13.984 3.527h-3.5V20.8h4.1V22h-5.586v-8.531h5.537v1.2h-4.055v2.351h3.5zm16.759 1.7l1.313-6.422h1.471L70.784 22h-1.418l-1.623-6.229L66.085 22h-1.424l-1.969-8.531h1.471l1.324 6.41 1.629-6.41h1.242zM78.041 22h-1.477v-8.531h1.477zM88.5 14.664h-2.66V22h-1.473v-7.336H81.73v-1.2h6.77zM99.03 22h-1.476v-3.785h-3.815V22h-1.482v-8.531h1.482v3.551h3.814v-3.551h1.477z" fill="#fff"/></svg>